<?xml version="1.0" encoding="utf-8"?>
<!-- Generator: Adobe Illustrator 18.0.0, SVG Export Plug-In . SVG Version: 6.00 Build 0)  -->
<svg version="1.2" baseProfile="tiny" id="Layer_1" xmlns="http://www.w3.org/2000/svg" xmlns:xlink="http://www.w3.org/1999/xlink"
	 x="0px" y="0px" viewBox="0 0 364.6 339" xml:space="preserve">
<path fill="#FDBA20" d="M153.8,105.7c-5.4,3.5-16.7,21.2-34.4,24.6c-17.7,3.5-39.8,2.7-45,4.1c-5.2,1.4-9.9,4.4-10,34.4h0
	c0,0,0,0,0,0c0,0,0,0.1,0,0.1c0,0,0,0.1,0,0.1c0,0,0,0.1,0,0.1c0,0,0,0.1,0,0.1c0,0,0,0,0,0h0c0,30,4.7,33,10,34.4
	c5.3,1.4,27.3,0.6,45,4.1c17.7,3.5,29.1,21.1,34.4,24.6c5.4,3.5,6.3-0.8,6.3-0.8s0-17.9,0.1-40.2l-19.2-4.7l-19.4,6.1l-15.5-3h16
	l18.8-6.9l19.2,3.8c0-2.6,0-5.3,0-8c0.1,0,0.2,0,0.3,0c4.6,0,8.6-3.1,9.9-7.3h7.7v-6.2h-7.7c-1.3-4.2-5.2-7.3-9.9-7.3
	c-0.1,0-0.2,0-0.3,0c0-27.2-0.1-51.6-0.1-51.6S159.2,102.2,153.8,105.7z"/>
<path fill="#FEC218" d="M153.8,105.7c-5.4,3.5-16.7,21.2-34.4,24.6c-17.7,3.5-39.8,2.7-45,4.1c-5.2,1.4-9.9,4.4-10,34.4h0
	c0,0,0,0,0,0c0,0,0,0.1,0,0.1c0,0,0,0.1,0,0.1c0,0,0,0.1,0,0.1c0,0,0,0.1,0,0.1c0,0,0,0,0,0h0c0,30,4.7,33,10,34.4
	c5.3,1.4,27.3,0.6,45,4.1c17.7,3.5,29.1,21.1,34.4,24.6c5.4,3.5,6.3-0.8,6.3-0.8s0-17.9,0.1-40.2l-19.2-4.7l-19.4,6.1l-15.5-3h16
	l18.8-6.9l19.2,3.8c0-2.6,0-5.3,0-8c0.1,0,0.2,0,0.3,0c4.6,0,8.6-3.1,9.9-7.3h7.7v-6.2h-7.7c-1.3-4.2-5.2-7.3-9.9-7.3
	c-0.1,0-0.2,0-0.3,0c0-27.2-0.1-51.6-0.1-51.6S159.2,102.2,153.8,105.7z"/>
<g>
	<path d="M55.6,234.7c-3,0-6-0.3-8.8-1c-2.9-0.7-5.4-1.8-7.6-3.5c-2.2-1.7-4-3.9-5.4-6.7c-1.4-2.8-2-6.3-2-10.6v-20.6
		c0-3.5-0.7-6.1-2.1-7.6c-1.4-1.6-3.6-2.3-6.6-2.3h-2.8v-17.2H23c3,0,5.2-0.8,6.6-2.3c1.4-1.6,2.1-4.1,2.1-7.6V128
		c0-4.2,0.7-7.8,2-10.6c1.4-2.8,3.1-5.1,5.4-6.7c2.2-1.7,4.8-2.8,7.6-3.5c2.9-0.7,5.8-1,8.8-1h7.1v17.2h-5.4c-2.1,0-3.6,0.4-4.2,1.3
		c-0.7,0.9-1,2.1-1,3.9v29.2c0,5.4-1.3,9.3-3.9,11.6c-2.6,2.3-6,3.8-10.1,4.5c4.1,0.7,7.5,2.2,10.1,4.5c2.6,2.3,3.9,6.1,3.9,11.6
		v22.5c0,1.7,0.3,3,1,3.9c0.7,0.9,2.1,1.3,4.2,1.3h5.4v17.2H55.6z"/>
</g>
<g>
	<path d="M301.9,217.5h5.4c2.1,0,3.6-0.4,4.2-1.3c0.7-0.9,1-2.1,1-3.9v-22.5c0-5.4,1.3-9.3,3.9-11.6c2.6-2.3,5.9-3.8,10-4.5
		c-4.1-0.7-7.4-2.2-10-4.5c-2.6-2.3-3.9-6.1-3.9-11.6l-0.2-29.2c0-1.7-0.3-3-1-3.9c-0.7-0.9-2-1.3-4.2-1.3h-5.3v-17.2h7.1
		c3,0,6,0.3,8.8,1c2.9,0.7,5.4,1.8,7.6,3.5c2.2,1.7,4,3.9,5.4,6.7c1.4,2.8,2,6.4,2,10.6v27.2c0,3.5,0.7,6.1,2.1,7.6
		c1.4,1.6,3.6,2.3,6.6,2.3h2.8v17.2h-2.8c-3,0-5.2,0.8-6.6,2.3c-1.4,1.6-2.1,4.1-2.1,7.6v20.6c0,4.2-0.7,7.8-2,10.6
		c-1.4,2.8-3.2,5.1-5.4,6.7c-2.2,1.7-4.8,2.8-7.6,3.5c-2.9,0.7-5.8,1-8.8,1h-7.1V217.5z"/>
</g>
<g>
	<path d="M197,216.5c-3.6,0-6.9-0.4-9.7-1.3c-2.9-0.9-5.4-2-7.6-3.5c-2.2-1.5-4.1-3.3-5.7-5.3c-1.6-2-3-4.1-4-6.4l14.7-8.9
		c1.4,2.5,2.9,4.7,4.5,6.5c1.6,1.8,4,2.8,7.1,2.8c1.5,0,2.8-0.2,4-0.5c1.2-0.3,2.2-0.9,3-1.8c0.8-0.9,1.5-2,1.9-3.5
		c0.5-1.5,0.7-3.3,0.7-5.5v-61.3h18v61.6c0,4.6-0.6,8.7-1.9,12.1c-1.3,3.4-3.1,6.3-5.5,8.5c-2.4,2.2-5.3,3.9-8.6,5
		S201,216.5,197,216.5z"/>
	<path d="M266.6,216.5c-4.2,0-8-0.5-11.5-1.4c-3.4-0.9-6.5-2.2-9.3-3.8s-5.1-3.6-7.2-5.8c-2-2.3-3.7-4.7-5-7.2l14.7-8.5
		c2,3.2,4.3,5.8,7,7.9c2.7,2.1,6.3,3.1,10.8,3.1c3.8,0,6.8-0.8,9-2.5c2.2-1.7,3.3-3.8,3.3-6.4c0-3.1-1.2-5.4-3.5-7
		c-2.3-1.5-5.5-3.2-9.7-5l-4.5-1.9c-3.3-1.4-6.2-2.9-8.9-4.5c-2.7-1.6-4.9-3.5-6.8-5.7c-1.9-2.1-3.3-4.6-4.4-7.4
		c-1-2.8-1.5-6-1.5-9.7c0-3.4,0.6-6.5,1.9-9.4c1.2-2.9,3-5.5,5.3-7.6c2.3-2.2,5-3.8,8.3-5c3.3-1.2,6.9-1.8,11-1.8
		c5.8,0,10.7,1.1,14.9,3.3c4.2,2.2,7.8,6,10.8,11.2l-14,9c-1.5-2.7-3.2-4.7-5-5.9c-1.8-1.2-4-1.8-6.6-1.8c-2.7,0-4.8,0.7-6.3,2.2
		c-1.5,1.5-2.3,3.3-2.3,5.5c0,2.7,0.9,4.8,2.6,6.2c1.8,1.4,4.6,3,8.4,4.7l4.5,1.9c3.9,1.6,7.3,3.3,10.2,5.1c3,1.8,5.5,3.7,7.5,5.9
		c2,2.2,3.6,4.7,4.6,7.5c1.1,2.8,1.6,6.1,1.6,9.8c0,4-0.8,7.6-2.3,10.7c-1.5,3.1-3.6,5.8-6.2,7.9c-2.7,2.1-5.8,3.8-9.5,4.8
		C274.9,216,270.9,216.5,266.6,216.5z"/>
</g>
</svg>
