<?xml version="1.0" encoding="utf-8"?>
<!-- Generator: Adobe Illustrator 18.0.0, SVG Export Plug-In . SVG Version: 6.00 Build 0)  -->
<svg version="1.2" baseProfile="tiny" id="Layer_1" xmlns="http://www.w3.org/2000/svg" xmlns:xlink="http://www.w3.org/1999/xlink"
	 x="0px" y="0px" viewBox="0 0 364.6 339" xml:space="preserve">
<path fill="#FDBA20" d="M256.6,150.2c-2.3,1.5-7.2,9.1-14.8,10.6s-17.1,1.2-19.3,1.8c-2.3,0.6-4.3,1.9-4.3,14.8h0c0,0,0,0,0,0
	c0,0,0,0,0,0c0,0,0,0,0,0.1c0,0,0,0,0,0.1c0,0,0,0,0,0c0,0,0,0,0,0h0c0,12.9,2,14.2,4.3,14.8c2.3,0.6,11.7,0.3,19.3,1.8
	c7.6,1.5,12.5,9.1,14.8,10.6s2.7-0.3,2.7-0.3s0-7.7,0-17.3l-8.3-2l-8.3,2.6l-6.7-1.3h6.9l8.1-3l8.3,1.7c0-1.1,0-2.3,0-3.4
	c0,0,0.1,0,0.1,0c2,0,3.7-1.3,4.3-3.1h3.3v-2.7h-3.3c-0.6-1.8-2.3-3.1-4.3-3.1c0,0-0.1,0-0.1,0c0-11.7,0-22.2,0-22.2
	S258.9,148.7,256.6,150.2z"/>
<path fill="#FEC218" d="M256.6,150.2c-2.3,1.5-7.2,9.1-14.8,10.6s-17.1,1.2-19.3,1.8c-2.3,0.6-4.3,1.9-4.3,14.8h0c0,0,0,0,0,0
	c0,0,0,0,0,0c0,0,0,0,0,0.1c0,0,0,0,0,0.1c0,0,0,0,0,0c0,0,0,0,0,0h0c0,12.9,2,14.2,4.3,14.8c2.3,0.6,11.7,0.3,19.3,1.8
	c7.6,1.5,12.5,9.1,14.8,10.6s2.7-0.3,2.7-0.3s0-7.7,0-17.3l-8.3-2l-8.3,2.6l-6.7-1.3h6.9l8.1-3l8.3,1.7c0-1.1,0-2.3,0-3.4
	c0,0,0.1,0,0.1,0c2,0,3.7-1.3,4.3-3.1h3.3v-2.7h-3.3c-0.6-1.8-2.3-3.1-4.3-3.1c0,0-0.1,0-0.1,0c0-11.7,0-22.2,0-22.2
	S258.9,148.7,256.6,150.2z"/>
<g>
	<path d="M214.4,205.6c-1.3,0-2.6-0.1-3.8-0.4c-1.2-0.3-2.3-0.8-3.3-1.5c-1-0.7-1.7-1.7-2.3-2.9c-0.6-1.2-0.9-2.7-0.9-4.5v-8.8
		c0-1.5-0.3-2.6-0.9-3.3c-0.6-0.7-1.6-1-2.8-1h-1.2v-7.4h1.2c1.3,0,2.2-0.3,2.8-1c0.6-0.7,0.9-1.8,0.9-3.3v-11.7
		c0-1.8,0.3-3.3,0.9-4.5c0.6-1.2,1.4-2.2,2.3-2.9c1-0.7,2-1.2,3.3-1.5c1.2-0.3,2.5-0.4,3.8-0.4h3.1v7.4h-2.3c-0.9,0-1.5,0.2-1.8,0.6
		c-0.3,0.4-0.4,0.9-0.4,1.7v12.5c0,2.3-0.6,4-1.7,5c-1.1,1-2.6,1.6-4.4,1.9c1.8,0.3,3.2,0.9,4.4,1.9c1.1,1,1.7,2.6,1.7,5v9.7
		c0,0.7,0.1,1.3,0.4,1.7c0.3,0.4,0.9,0.6,1.8,0.6h2.3v7.4H214.4z"/>
</g>
<g>
	<path d="M320.3,198.2h2.3c0.9,0,1.5-0.2,1.8-0.6c0.3-0.4,0.4-0.9,0.4-1.7v-9.7c0-2.3,0.6-4,1.7-5c1.1-1,2.5-1.6,4.3-1.9
		c-1.8-0.3-3.2-0.9-4.3-1.9c-1.1-1-1.7-2.6-1.7-5l-0.1-12.5c0-0.7-0.1-1.3-0.4-1.7c-0.3-0.4-0.9-0.6-1.8-0.6h-2.3v-7.4h3.1
		c1.3,0,2.6,0.1,3.8,0.4c1.2,0.3,2.3,0.8,3.3,1.5c1,0.7,1.7,1.7,2.3,2.9c0.6,1.2,0.9,2.7,0.9,4.5v11.7c0,1.5,0.3,2.6,0.9,3.3
		c0.6,0.7,1.6,1,2.8,1h1.2v7.4h-1.2c-1.3,0-2.2,0.3-2.8,1c-0.6,0.7-0.9,1.8-0.9,3.3v8.8c0,1.8-0.3,3.3-0.9,4.5
		c-0.6,1.2-1.4,2.2-2.3,2.9c-1,0.7-2,1.2-3.3,1.5c-1.2,0.3-2.5,0.4-3.8,0.4h-3.1V198.2z"/>
</g>
<g>
	<path d="M26.1,156.6h7.8v30.8h17.1v6.8H26.1V156.6z"/>
	<path d="M60.2,166.8c-1.3,0-2.4-0.4-3.3-1.3c-0.9-0.9-1.4-2-1.4-3.4c0-1.4,0.5-2.5,1.4-3.3c0.9-0.9,2.1-1.3,3.3-1.3
		c1.3,0,2.4,0.4,3.3,1.3c0.9,0.9,1.4,2,1.4,3.3c0,1.4-0.5,2.5-1.4,3.4C62.6,166.3,61.5,166.8,60.2,166.8z M56.5,170.7h7.5v23.6h-7.5
		V170.7z"/>
	<path d="M84.8,194.8c-1.8,0-3.3-0.3-4.6-1c-1.2-0.7-2.2-1.7-2.9-2.9l0.2,3.4h-7.5v-40h7.5V174c0.8-1.2,1.8-2.1,2.9-2.8
		c1.2-0.7,2.7-1,4.5-1c1.4,0,2.8,0.3,4.1,0.9c1.3,0.6,2.4,1.4,3.3,2.5c1,1.1,1.7,2.4,2.3,3.9c0.6,1.5,0.8,3.1,0.8,5s-0.3,3.5-0.9,5
		c-0.6,1.5-1.3,2.8-2.3,3.9c-1,1.1-2.1,1.9-3.4,2.5C87.6,194.5,86.2,194.8,84.8,194.8z M82.6,188.2c1.6,0,2.8-0.5,3.7-1.5
		c0.9-1,1.4-2.4,1.4-4.3c0-1.8-0.5-3.2-1.4-4.2c-0.9-1-2.2-1.5-3.7-1.5c-1.6,0-2.9,0.5-3.9,1.5c-1,1-1.4,2.4-1.4,4.2
		c0,1.9,0.5,3.3,1.4,4.3C79.7,187.7,81,188.2,82.6,188.2z"/>
	<path d="M107.4,184.7c0.4,1.2,1.1,2.2,2,2.8c1,0.7,2.3,1,4,1c1.4,0,2.5-0.2,3.5-0.6c1-0.4,1.8-0.8,2.4-1.2l4.3,4.6
		c-1.1,1-2.5,1.8-4,2.5c-1.6,0.7-3.6,1-6,1c-2.1,0-4-0.3-5.7-0.9c-1.7-0.6-3.2-1.5-4.4-2.5c-1.2-1.1-2.2-2.4-2.8-3.9
		c-0.6-1.5-1-3.2-1-5c0-1.8,0.3-3.4,1-4.9c0.7-1.5,1.6-2.8,2.8-3.9c1.2-1.1,2.6-1.9,4.1-2.5c1.6-0.6,3.3-0.9,5.1-0.9
		c2.1,0,4,0.4,5.6,1.1c1.6,0.7,3,1.8,4,3.1c1.1,1.3,1.9,2.9,2.4,4.6c0.5,1.8,0.7,3.7,0.5,5.8H107.4z M117.7,180.4
		c-0.2-1.3-0.7-2.3-1.5-3c-0.8-0.7-2-1.1-3.4-1.1s-2.7,0.3-3.7,1c-1,0.7-1.6,1.7-1.9,3.1H117.7z"/>
	<path d="M130.4,170.7h7.5l-0.1,4.3c0.4-1,0.9-1.8,1.5-2.4c0.5-0.6,1.1-1.1,1.7-1.5s1.2-0.6,1.9-0.7c0.6-0.1,1.3-0.2,1.9-0.2
		c0.8,0,1.5,0.1,2,0.3c0.6,0.2,1.1,0.4,1.6,0.7l-2.4,6.8c-0.5-0.2-1-0.4-1.4-0.5c-0.5-0.1-1-0.2-1.5-0.2c-1.7,0-3,0.5-3.9,1.4
		c-0.9,0.9-1.3,2.7-1.3,5.2v10.5h-7.5V170.7z"/>
	<path d="M162.6,194.9c-1.2,0-2.3-0.2-3.3-0.5c-1-0.3-1.9-0.8-2.6-1.6c-0.7-0.8-1.3-1.7-1.7-2.9c-0.4-1.2-0.6-2.7-0.6-4.5v-8.5h-3.5
		v-6.2h3.5v-12.3h7.5v12.3h6v6.2h-6v8.7c0,1.2,0.2,2,0.5,2.3c0.4,0.4,0.8,0.6,1.4,0.6c0.6,0,1.2-0.1,1.6-0.4c0.4-0.2,0.8-0.5,1-0.6
		l2.8,5.2c-0.6,0.5-1.4,1-2.4,1.4C165.7,194.6,164.3,194.9,162.6,194.9z"/>
	<path d="M180.1,192.1l-9.4-21.4h8.2l3.4,9.1c0.2,0.6,0.4,1.2,0.6,1.9c0.2,0.7,0.4,1.4,0.6,2c0.2,0.7,0.4,1.5,0.5,2.2
		c0.1-0.7,0.3-1.5,0.4-2.2c0.1-0.6,0.3-1.3,0.5-2c0.2-0.7,0.4-1.3,0.6-1.9l3.7-9.1h7.6L181.5,206H174L180.1,192.1z"/>
</g>
<g>
	<path d="M275.2,197.8c-1.6,0-2.9-0.2-4.2-0.6c-1.2-0.4-2.3-0.9-3.3-1.5s-1.8-1.4-2.5-2.3c-0.7-0.9-1.3-1.8-1.7-2.7l6.3-3.8
		c0.6,1.1,1.2,2,1.9,2.8c0.7,0.8,1.7,1.2,3,1.2c0.6,0,1.2-0.1,1.7-0.2c0.5-0.1,1-0.4,1.3-0.8c0.4-0.4,0.6-0.9,0.8-1.5
		c0.2-0.6,0.3-1.4,0.3-2.4v-26.4h7.8v26.5c0,2-0.3,3.7-0.8,5.2c-0.6,1.5-1.3,2.7-2.4,3.7c-1,1-2.3,1.7-3.7,2.1
		C278.4,197.6,276.9,197.8,275.2,197.8z"/>
	<path d="M305.1,197.8c-1.8,0-3.5-0.2-4.9-0.6c-1.5-0.4-2.8-1-4-1.6c-1.2-0.7-2.2-1.5-3.1-2.5c-0.9-1-1.6-2-2.1-3.1l6.3-3.7
		c0.8,1.4,1.9,2.5,3,3.4c1.2,0.9,2.7,1.3,4.6,1.3c1.6,0,2.9-0.4,3.8-1.1c0.9-0.7,1.4-1.6,1.4-2.7c0-1.3-0.5-2.3-1.5-3
		c-1-0.7-2.4-1.4-4.2-2.2l-1.9-0.8c-1.4-0.6-2.7-1.2-3.8-1.9c-1.1-0.7-2.1-1.5-2.9-2.4c-0.8-0.9-1.4-2-1.9-3.2
		c-0.4-1.2-0.7-2.6-0.7-4.2c0-1.4,0.3-2.8,0.8-4c0.5-1.3,1.3-2.3,2.3-3.3c1-0.9,2.2-1.6,3.6-2.2s3-0.8,4.7-0.8
		c2.5,0,4.6,0.5,6.4,1.4c1.8,0.9,3.3,2.6,4.6,4.8l-6,3.9c-0.7-1.2-1.4-2-2.2-2.5c-0.8-0.5-1.7-0.8-2.8-0.8c-1.1,0-2,0.3-2.7,0.9
		c-0.7,0.6-1,1.4-1,2.4c0,1.2,0.4,2.1,1.1,2.7c0.8,0.6,2,1.3,3.6,2l1.9,0.8c1.7,0.7,3.1,1.4,4.4,2.2c1.3,0.8,2.3,1.6,3.2,2.5
		c0.9,0.9,1.5,2,2,3.2c0.5,1.2,0.7,2.6,0.7,4.2c0,1.7-0.3,3.3-1,4.6c-0.6,1.3-1.5,2.5-2.7,3.4c-1.1,0.9-2.5,1.6-4.1,2.1
		C308.6,197.6,306.9,197.8,305.1,197.8z"/>
</g>
</svg>
