<svg id="Layer_1" data-name="Layer 1" xmlns="http://www.w3.org/2000/svg" xmlns:xlink="http://www.w3.org/1999/xlink" width="303.79614" height="319.70643" viewBox="0 0 303.79614 319.70643">
  <defs>
    <style>
      .cls-1 {
        fill: none;
        clip-rule: evenodd;
      }

      .cls-2 {
        fill: #fff;
      }

      .cls-3 {
        fill: #e6e6e6;
      }

      .cls-4 {
        fill: #42a2ce;
      }

      .cls-5 {
        fill: #88427e;
      }

      .cls-6 {
        clip-path: url(#clip-path);
      }

      .cls-7 {
        fill: #265b8c;
      }

      .cls-8 {
        clip-path: url(#clip-path-2);
      }

      .cls-9 {
        fill: #814f76;
      }

      .cls-10 {
        clip-path: url(#clip-path-3);
      }

      .cls-11 {
        fill: #43a2ce;
      }

      .cls-12 {
        clip-path: url(#clip-path-4);
      }
    </style>
    <clipPath id="clip-path">
      <path class="cls-1" d="M83.53855,244.54375a3.63977,3.63977,0,0,0-1.783-2.495,4.22141,4.22141,0,0,0-3.092-.5455,3.67168,3.67168,0,0,0-2.83939,2.46411q-2.93568,7.48224-2.92946,22.39732A96.77262,96.77262,0,0,0,74.48662,285.145c.37431.32708.75173.64247,1.13359.94244a4.90441,4.90441,0,0,0,3.94717,1.25563,2.98735,2.98735,0,0,0,2.29139-2.003,5.661,5.661,0,0,0,.14878-3.12641q-1.288-6.35718-1.00925-17.95422.2662-12.01379,2.36411-17.42878a3.96023,3.96023,0,0,0,.17613-2.28689"/>
    </clipPath>
    <clipPath id="clip-path-2">
      <path class="cls-1" d="M73.11508,270.74432c-.05672-.10756-.11075-.21532-.16636-.32311l.00066.02822a87.07607,87.07607,0,0,1-6.52279-15.381q-1.31139-4.02972-4.38531-3.42019-2.11469.42018-3.17854,3.23595l-.32982.87831A102.27642,102.27642,0,0,0,62.914,268.193q5.46106,12.21084,12.70821,17.90858a4.90441,4.90441,0,0,0,3.94717,1.25563,2.98769,2.98769,0,0,0,2.29162-2.003,5.13447,5.13447,0,0,0,.28134-2.11432,56.70717,56.70717,0,0,1-9.02725-12.49551"/>
    </clipPath>
    <clipPath id="clip-path-3">
      <path class="cls-1" d="M66.41926,255.088q-1.31139-4.02973-4.38531-3.4202-2.11469.42018-3.17855,3.23617l-6.72607,17.913v.04849l-5.13212,13.668q.42734.85792.83489,1.59461,1.77776,3.16652,3.6883,2.785,2.93569-.58285,6.056-9.01469,1.66232-4.764,5.05561-14.305l.0069.01587q1.45215-4.15372,4.09217-11.58545c-.10431-.3099-.20862-.62089-.3118-.93585"/>
    </clipPath>
    <clipPath id="clip-path-4">
      <path class="cls-1" d="M51.51862,290.90852q1.96791-.39077,4.019-4.31107c-1.4456-3.28753-2.95525-6.88934-4.47959-10.93682Q47.21561,265.8,43.10965,251.486q-.9978-3.52986-4.549-2.82491a3.89341,3.89341,0,0,0-2.75644,1.81591,3.99623,3.99623,0,0,0-.33894,3.234q7.55273,25.72923,12.365,34.41278,1.77743,3.16619,3.6883,2.78479"/>
    </clipPath>
  </defs>
  <title>golden-ticket</title>
  <g>
    <g>
      <path class="cls-2" d="M60.59192,315.70673a50.08789,50.08789,0,1,1,50.08789-50.08789A50.14471,50.14471,0,0,1,60.59192,315.70673Z"/>
      <path class="cls-3" d="M60.59216,219.53132a46.08755,46.08755,0,1,1-46.08756,46.08755,46.08754,46.08754,0,0,1,46.08756-46.08755m0-8a54.08755,54.08755,0,1,0,54.08756,54.08755,54.14883,54.14883,0,0,0-54.08756-54.08755Z"/>
    </g>
    <g>
      <path class="cls-4" d="M120.87379,56.8012A120.87379,120.87379,0,1,0,241.74758,177.675,120.87385,120.87385,0,0,0,120.87379,56.8012Zm0,226.63835a107.09926,107.09926,0,0,1-16.83007-1.33169c-4.91248-5.23525-9.56216-12.6654-13.64287-21.99062a158.756,158.756,0,0,1-8.91029-27.46847,371.84255,371.84255,0,0,1,78.76646,0,158.68274,158.68274,0,0,1-8.91114,27.46847c-4.08072,9.32522-8.72954,16.75537-13.642,21.99062A107.11725,107.11725,0,0,1,120.87379,283.43955Zm0-60.43689a366.45131,366.45131,0,0,0-40.94722,2.23541,249.13921,249.13921,0,0,1-4.33984-43.78577h90.576a249.32246,249.32246,0,0,1-4.34258,43.78577A366.42434,366.42434,0,0,0,120.87379,223.00266Zm0-151.09224a107.2303,107.2303,0,0,1,16.83007,1.33074c4.91248,5.23525,9.56131,12.66635,13.642,21.99062a158.73579,158.73579,0,0,1,8.91114,27.46847,361.369,361.369,0,0,1-39.38323,2.09244,361.3445,361.3445,0,0,1-39.38323-2.09244,158.80908,158.80908,0,0,1,8.91029-27.46847c4.08072-9.32428,8.73039-16.75537,13.64287-21.99062A107.21228,107.21228,0,0,1,120.87379,71.91042Zm0,60.43689a366.42434,366.42434,0,0,0,40.94637-2.23541,249.3042,249.3042,0,0,1,4.34258,43.78577h-90.576a249.121,249.121,0,0,1,4.33984-43.78577A366.45131,366.45131,0,0,0,120.87379,132.34732Zm52.85461,41.55036a256.97063,256.97063,0,0,0-4.40623-44.72368,220.696,220.696,0,0,0,40.33124-9.03286,104.89,104.89,0,0,1,16.91119,53.75654Zm-105.70923,0H15.183a104.89,104.89,0,0,1,16.91119-53.75654A220.70267,220.70267,0,0,0,72.42446,129.174,257.06511,257.06511,0,0,0,68.01917,173.89768Zm0,7.55461A257.05306,257.05306,0,0,0,72.42446,226.175a220.77646,220.77646,0,0,0-40.33029,9.0338A104.89,104.89,0,0,1,15.183,181.45229Zm105.70923,0h52.8362a104.89,104.89,0,0,1-16.91119,53.75654,220.76977,220.76977,0,0,0-40.33124-9.0338A256.95859,256.95859,0,0,0,173.7284,181.45229Zm31.37676-67.75911c-.39293.1273-.77652.2545-1.17767.3799a222.59178,222.59178,0,0,1-36.1592,7.69758c-4.29281-18.77491-10.67807-34.65329-18.45035-46.011a105.153,105.153,0,0,1,46.343,27.12814A107.48857,107.48857,0,0,1,205.10516,113.69319ZM92.42964,75.75969c-7.77228,11.3577-14.15753,27.23608-18.45034,46.011a222.6043,222.6043,0,0,1-36.16015-7.69758c-.40021-.12541-.78389-.25261-1.17673-.3799a107.47859,107.47859,0,0,1,9.44326-10.80536A105.17172,105.17172,0,0,1,92.42964,75.75969ZM36.64242,241.65584c.39284-.12635.77652-.25355,1.17673-.379a222.60429,222.60429,0,0,1,36.16015-7.69758c4.29281,18.77406,10.67807,34.65329,18.45034,46.011a105.18256,105.18256,0,0,1-46.344-27.12908A107.36412,107.36412,0,0,1,36.64242,241.65584Zm112.67552,37.93444c7.77228-11.3577,14.15753-27.23692,18.45035-46.011a222.59177,222.59177,0,0,1,36.1592,7.69758c.40115.12541.78474.25261,1.17767.379A107.37408,107.37408,0,0,1,195.661,252.4612,105.16385,105.16385,0,0,1,149.31794,279.59029Z"/>
      <path class="cls-2" d="M279.56374,153.75551l-15.58488-66.6411,18.92607-14.36419a37.65773,37.65773,0,1,0-50.43351-54.25779L216.76467,36.32l-65.3264-20.40553a12.55171,12.55171,0,0,0-12.289,2.78806L120.761,35.79472a12.54874,12.54874,0,0,0,2.0544,19.93632l50.14626,30.30561-15.29448,19.31091-15.13932-3.32918a12.55268,12.55268,0,0,0-11.24259,3.06537l-8.84336,8.22a12.55323,12.55323,0,0,0-.648,17.74019L162.573,175.06329a12.55323,12.55323,0,0,0,17.74019.648l9.19411-8.54608a12.55543,12.55543,0,0,0,3.84526-11.20593l-2.41713-14.88892,20.26292-13.89762L237.765,179.397a12.55232,12.55232,0,0,0,19.7333,3.50349l18.38822-17.09216A12.55318,12.55318,0,0,0,279.56374,153.75551Z"/>
      <path class="cls-5" d="M282.17481,156.66546,265.94249,87.25586l19.71233-14.96092A39.22376,39.22376,0,1,0,237.889,10.47563a39.51073,39.51073,0,0,0-4.76285,5.30747L216.76686,34.35133,148.72658,13.09808A13.07315,13.07315,0,0,0,135.927,16.002L116.7749,33.80419a13.07005,13.07005,0,0,0,2.13974,20.76454l52.2295,31.5646-15.92987,18.08084L139.446,100.74667a13.07416,13.07416,0,0,0-11.70964,3.19272l-9.21074,8.56153a13.07474,13.07474,0,0,0-.675,18.47718l44.50555,47.88033a13.07474,13.07474,0,0,0,18.47718.675l9.57607-8.90111a13.077,13.077,0,0,0,4.005-11.67146l-2.51755-15.50746,19.07239-14.475,27.67026,54.39382a13.07379,13.07379,0,0,0,20.55308,3.649L278.34481,169.219A13.07468,13.07468,0,0,0,282.17481,156.66546ZM125.676,43.38025,144.82814,25.578l62.47561,19.51415L179.92629,76.166Zm55.83235,117.676-9.57607,8.90111L127.42674,122.077l9.21074-8.56153,23.29306,5.12341,83.39474-94.654a26.14811,26.14811,0,1,1,34.8938,37.53974L177.73277,137.791Zm68.7832,16.389-28.74023-56.49777,32.9885-25.03732L269.44369,159.643ZM275.8009,48.86193a3.25333,3.25333,0,0,1-.85386-1.882,21.24852,21.24852,0,0,0-17.35461-18.67058,3.2685,3.2685,0,0,1,1.15544-6.43407A27.78538,27.78538,0,0,1,281.44827,46.297a3.26946,3.26946,0,0,1-5.64737,2.56493Z"/>
      <g>
        <circle class="cls-2" cx="60.59215" cy="265.61887" r="46.08757"/>
        <g>
          <g class="cls-6">
            <rect class="cls-7" x="71.89849" y="240.46408" width="12.68117" height="47.89706"/>
          </g>
          <g class="cls-8">
            <rect class="cls-9" x="57.58259" y="250.61777" width="25.52196" height="37.75748"/>
          </g>
          <g class="cls-10">
            <rect class="cls-11" x="46.04689" y="250.63738" width="21.63451" height="41.26695"/>
          </g>
          <g class="cls-12">
            <rect class="cls-7" x="34.32552" y="247.59336" width="22.16244" height="44.30635"/>
          </g>
        </g>
      </g>
    </g>
  </g>
</svg>
